<svg width="91" height="91" viewBox="0 0 91 91" fill="none" xmlns="http://www.w3.org/2000/svg">
<path d="M56.5175 27.6858C51.6044 27.9037 48.823 29.7515 48.823 29.7515C48.6067 30.9837 49.0402 32.7584 49.654 34.353C50.2678 35.9477 51.6766 38.2666 53.5951 39.4618C55.5137 40.6569 58.291 40.3676 60.1358 39.8604C61.9806 39.3533 63.2065 38.3751 64.1457 37.0344C65.0848 35.6937 66.242 31.3815 64.6153 29.0265C64.232 28.4773 61.4338 27.4688 56.5175 27.6858Z" fill="rgba(228, 126, 48, 1)"/>
<path d="M23.647 27.8675C23.647 27.8675 23.5514 30.1384 23.647 30.4033C23.7426 30.6683 24.3455 30.7658 24.4176 30.9349C24.4436 30.9946 24.5015 31.4715 24.5853 32.1326V27.5529C23.9933 27.7405 23.647 27.8675 23.647 27.8675Z" fill="rgba(228, 126, 48, 1)"/>
<path d="M45.7057 28.6884C43.0224 28.6884 38.662 25.9835 33.5091 25.9835C30.0133 25.9835 26.2859 27.0163 24.5879 27.5529V32.1292C24.7556 33.3437 25.0315 35.1807 25.4524 36.1975C26.1031 37.7678 27.1387 39.4105 28.5835 40.4029C30.0283 41.3954 32.7259 41.9009 34.05 41.9009C35.3741 41.9009 37.8075 41.7327 39.2758 40.9824C40.7441 40.2322 42.022 38.7847 42.6241 38.0387C43.2262 37.2926 43.9238 35.8157 44.141 35.0949C44.3582 34.3741 44.8781 32.8694 45.1162 32.6305C45.3544 32.3916 45.8282 32.4135 45.8282 32.4135H45.8399V28.6808C45.7946 28.6858 45.7493 28.6884 45.7057 28.6884ZM42.022 34.353C41.4074 35.9469 39.9986 38.2666 38.0809 39.4618C36.1631 40.6569 33.385 40.3676 31.5402 39.8604C29.6954 39.3533 28.4703 38.3751 27.5312 37.0344C26.592 35.6937 25.4348 31.3815 27.0616 29.0265C27.4406 28.4773 30.2405 27.4688 35.1527 27.6858C40.0649 27.9028 42.8496 29.7515 42.8496 29.7515C43.0693 30.9837 42.6358 32.7584 42.022 34.353Z" fill="rgba(228, 126, 48, 1)"/>
<path d="M43.0692 44.0271C43.0692 44.0271 41.299 43.9186 40.8294 45.2955C40.6346 45.8329 40.6172 46.4189 40.7799 46.967C40.9425 47.5151 41.2765 47.9962 41.7325 48.3394C42.4545 48.8827 44.3513 48.3394 44.3513 48.3394C44.3513 48.3394 44.7848 48.6649 45.002 48.7557C45.2192 48.8465 45.7567 48.8398 45.7567 48.8398H45.8364V36.7081C45.8364 36.7081 43.7157 38.9546 43.4272 40.4761C43.1388 41.9976 43.0692 44.0271 43.0692 44.0271Z" fill="rgba(228, 126, 48, 1)"/>
<path d="M40.3416 54.1908C38.3727 54.8973 36.1875 56.6888 36.1875 56.6888H45.84V54.1908L44.6945 53.0671C44.6945 53.0671 42.3105 53.4843 40.3416 54.1908Z" fill="rgba(228, 126, 48, 1)"/>
<path d="M35.9526 57.3616C35.9526 57.3616 37.5241 59.445 39.8359 60.4416C42.1478 61.4383 43.9179 61.6377 45.7426 61.6377H45.8399V57.3616H35.9526Z" fill="rgba(228, 126, 48, 1)"/>
<path d="M50.3043 20.7974L49.5622 21.1885L49.7039 20.36L49.1035 19.7729L49.9328 19.6527L50.3043 18.8982L50.6749 19.6527L51.5043 19.7729L50.9039 20.36L51.0456 21.1885L50.3043 20.7974Z" fill="rgba(228, 126, 48, 1)"/>
<path d="M53.8093 20.7974L53.0672 21.1885L53.2089 20.36L52.6094 19.7729L53.4387 19.6527L53.8093 18.8982L54.18 19.6527L55.0093 19.7729L54.4097 20.36L54.5514 21.1885L53.8093 20.7974Z" fill="rgba(228, 126, 48, 1)"/>
<path d="M57.0253 21.1346L56.3427 21.4946L56.4735 20.7326L55.9209 20.1926L56.684 20.0816L57.0253 19.3885L57.3657 20.0816L58.1288 20.1926L57.577 20.7326L57.707 21.4946L57.0253 21.1346Z" fill="rgba(228, 126, 48, 1)"/>
<path d="M60.0733 21.1346L59.3915 21.4946L59.5215 20.7326L58.9697 20.1926L59.7328 20.0816L60.0733 19.3885L60.4145 20.0816L61.1776 20.1926L60.6258 20.7326L60.7558 21.4946L60.0733 21.1346Z" fill="rgba(228, 126, 48, 1)"/>
<path d="M63.2808 21.2835L62.599 21.6427L62.729 20.8806L62.1772 20.3415L62.9403 20.2305L63.2808 19.5366L63.6221 20.2305L64.3851 20.3415L63.8334 20.8806L63.9633 21.6427L63.2808 21.2835Z" fill="rgba(228, 126, 48, 1)"/>
<path d="M66.3695 21.392L65.6869 21.7511L65.8177 20.9891L65.2651 20.45L66.0282 20.339L66.3695 19.6451L66.7108 20.339L67.473 20.45L66.9213 20.9891L67.0512 21.7511L66.3695 21.392Z" fill="rgba(228, 126, 48, 1)"/>
<path d="M47.7383 18.8293L45.8398 17.7291V22.1414L47.7383 21.0413V18.8293Z" fill="rgba(228, 126, 48, 1)"/>
<path d="M45.8279 17.7224L45.8396 17.7291V17.3607H45.8279L23.5151 19.2801V22.4324H45.8396V22.1414L45.8279 22.1473L43.9177 21.0413V18.8292L45.8279 17.7224ZM26.1691 21.7512L25.4865 21.3912L24.8048 21.7512L24.9348 20.9891L24.383 20.45L25.1453 20.339L25.4865 19.6451L25.8278 20.339L26.5901 20.45L26.0383 20.9891L26.1691 21.7512ZM29.2575 21.6427L28.5757 21.2835L27.8932 21.6427L28.0231 20.8806L27.4714 20.3415L28.2344 20.2305L28.5757 19.5366L28.9162 20.2305L29.6793 20.3415L29.1275 20.8806L29.2575 21.6427ZM32.4649 21.4938L31.7806 21.1346L31.0981 21.4938L31.228 20.7326L30.6763 20.1926L31.4394 20.0816L31.7806 19.3886L32.1211 20.0816L32.8842 20.1926L32.3324 20.7326L32.4649 21.4938ZM35.5138 21.4938L34.8313 21.1346L34.1495 21.4938L34.2795 20.7326L33.7277 20.1926L34.49 20.0816L34.8313 19.3886L35.1725 20.0816L35.9356 20.1926L35.3864 20.7326L35.5138 21.4938ZM38.7892 21.1885L38.0471 20.7974L37.305 21.1885L37.4467 20.36L36.8463 19.7713L37.6764 19.651L38.0471 18.894L38.4177 19.651L39.247 19.7713L38.6475 20.36L38.7892 21.1885ZM42.2943 21.1885L41.5522 20.7974L40.8101 21.1885L40.9518 20.36L40.3522 19.7713L41.1815 19.651L41.5522 18.894L41.9236 19.651L42.753 19.7713L42.1526 20.36L42.2943 21.1885Z" fill="rgba(228, 126, 48, 1)"/>
<path d="M67.2617 30.9349C67.234 30.9997 67.172 31.5506 67.0688 32.2949V35.8022C67.0688 36.6046 67.0451 37.4053 66.9976 38.2043C66.9691 38.6838 66.9322 39.1623 66.8869 39.6401C66.8567 39.958 66.8229 40.2756 66.7854 40.593C66.748 40.9104 66.7074 41.2272 66.6638 41.5434C66.5733 42.1759 66.4679 42.8059 66.3477 43.4333C66.4685 42.8059 66.5738 42.1759 66.6638 41.5434C66.7091 41.2272 66.7508 40.9104 66.7888 40.593C66.8268 40.2756 66.8606 39.958 66.8902 39.6401C66.9355 39.1623 66.9724 38.6838 67.0009 38.2043C67.0484 37.4059 67.0722 36.6052 67.0722 35.8022V32.2974C66.9682 33.0544 66.8206 34.0116 66.6295 34.8594C66.6102 34.9435 66.59 35.0276 66.5699 35.1117C66.4831 35.484 66.3693 35.8494 66.2295 36.2051C66.1456 36.4011 66.0618 36.5987 65.9678 36.7939C65.9209 36.8931 65.8722 36.9915 65.8228 37.0891C65.7238 37.2859 65.6182 37.4821 65.5058 37.6778C65.3934 37.8735 65.2758 38.0636 65.1528 38.2481C64.5951 39.0892 63.9117 39.8529 63.0984 40.4097C62.9826 40.4887 62.8585 40.5653 62.7286 40.6376C62.6816 40.6645 62.6338 40.6897 62.586 40.715C62.3789 40.8235 62.1584 40.9252 61.9269 41.0186C61.8548 41.048 61.7827 41.0766 61.7089 41.1027C61.4875 41.1868 61.2586 41.2633 61.0263 41.334C60.9366 41.3618 60.8469 41.3878 60.7571 41.4131C60.5483 41.4719 60.3379 41.5258 60.1291 41.5737C60.0654 41.5889 60.0025 41.6031 59.9387 41.6166C59.8121 41.6444 59.6872 41.6696 59.5631 41.6931L59.3777 41.7268C58.8017 41.8349 58.2178 41.8948 57.6319 41.9059H57.3728C57.2386 41.9059 57.0961 41.9 56.9477 41.8942H56.9351C56.8386 41.8942 56.7397 41.8857 56.6374 41.8799L56.4462 41.8689C56.2391 41.8555 56.0269 41.8386 55.8039 41.8168H55.7695L55.471 41.784C54.3935 41.6578 53.2463 41.4198 52.4103 40.9934C51.5743 40.5669 50.8171 39.9294 50.1999 39.3112C50.0624 39.1744 49.9324 39.0401 49.81 38.9083C49.6876 38.7763 49.5744 38.6493 49.4695 38.529C49.4167 38.4693 49.3672 38.4104 49.3194 38.3541C49.2238 38.2413 49.1383 38.1371 49.0628 38.0437C48.9874 37.9503 48.9111 37.8452 48.8339 37.7317C48.7568 37.6181 48.6788 37.4962 48.6025 37.3692C48.5262 37.2421 48.449 37.1084 48.3752 36.973C48.3015 36.8376 48.2285 36.6988 48.1597 36.5609C48.1254 36.4919 48.091 36.4229 48.0583 36.354C47.992 36.2169 47.93 36.0815 47.8721 35.9502L47.7883 35.7576C47.6962 35.5415 47.6151 35.3209 47.5451 35.0966C47.5308 35.0511 47.5166 35.0032 47.5006 34.9519C47.4931 34.9267 47.4847 34.9006 47.4763 34.8737C47.4679 34.8468 47.4537 34.8022 47.4411 34.7652C47.4201 34.6996 47.3983 34.6306 47.3749 34.5608L47.3346 34.4397C47.2021 34.0477 47.0462 33.6154 46.9011 33.2672L46.8575 33.1638C46.8348 33.1116 46.813 33.0628 46.7912 33.0166C46.7812 32.993 46.7703 32.9703 46.7602 32.9493C46.7392 32.9055 46.7191 32.8652 46.699 32.829C46.6898 32.8105 46.6797 32.7937 46.6705 32.7769C46.652 32.7449 46.6344 32.7163 46.6168 32.6927C46.6027 32.6715 46.5867 32.6515 46.569 32.633C46.467 32.5415 46.342 32.4796 46.2076 32.4539C46.1551 32.4415 46.1019 32.4322 46.0483 32.4261C45.987 32.4191 45.9255 32.4155 45.8638 32.4152H45.8462V36.7148C45.8462 36.7148 47.966 38.9613 48.2553 40.4828C48.5446 42.0043 48.6167 44.0339 48.6167 44.0339C48.6167 44.0339 50.3861 43.9254 50.8556 45.3022C51.0505 45.8396 51.068 46.4255 50.9056 46.9736C50.7431 47.5217 50.4093 48.0028 49.9534 48.3461C49.2306 48.8894 47.3338 48.3461 47.3338 48.3461C47.3338 48.3461 46.9002 48.6716 46.6839 48.7624C46.4676 48.8532 45.9292 48.8465 45.9292 48.8465H45.8504V54.1958L46.995 53.0721C46.995 53.0721 49.379 53.4926 51.3479 54.1958C53.3168 54.8989 55.4911 56.6887 55.4911 56.6887H45.8395V57.3616H55.7259C55.7259 57.3616 54.1545 59.445 51.8426 60.4416C49.5308 61.4383 47.7606 61.6377 45.9368 61.6377H45.8395V65.5369C45.8294 65.957 45.7129 66.3677 45.501 66.7302C45.289 67.0927 44.9885 67.3951 44.6278 67.609C44.2671 67.8229 43.8581 67.9411 43.4393 67.9527C43.0205 67.9642 42.6056 67.8686 42.2338 67.6749H42.2287C41.7256 67.3747 41.2015 67.0492 40.669 66.7052C34.6257 62.7992 30.6787 58.3583 27.8469 51.734C25.6959 46.6996 24.5867 41.2794 24.5867 35.8022V16.1731C24.5991 15.6748 24.7613 15.1918 25.052 14.7875C25.3427 14.3832 25.7484 14.0764 26.2159 13.9072C31.7573 12.1884 37.4926 11.1768 43.2861 10.8962H43.37C44.023 10.8962 44.6495 11.1558 45.112 11.6182C45.5746 12.0806 45.8356 12.708 45.8378 13.3631V17.3641L67.0688 19.185L67.7825 19.2464V14.0023L67.3632 13.8105C67.2408 13.7542 67.1183 13.6995 66.9951 13.6423L66.8148 13.5582L66.7879 13.5464L66.7603 13.5363C60.3345 11.2562 53.4585 10.0997 46.3225 10.0997C39.0758 10.0997 31.783 11.2932 24.6479 13.6473L24.611 13.66L24.5758 13.6759L24.4542 13.7306L24.2865 13.8055L23.8672 13.9972V35.8022C23.8677 41.3763 24.9965 46.8922 27.1853 52.0157C28.6259 55.3868 30.3718 58.2313 32.5084 60.7108C34.5854 63.1154 37.127 65.2745 40.2766 67.3107C42.9331 69.0265 45.3993 70.268 45.5024 70.3201L45.8378 70.4883L46.1657 70.3058C46.3334 70.215 50.1848 68.0719 51.4611 67.235C54.6534 65.1416 57.1028 63.0524 59.1689 60.6595C61.2972 58.2027 63.0288 55.375 64.4643 52.0157C66.6531 46.8922 67.782 41.3763 67.7825 35.8022V30.6994C67.5426 30.7785 67.2994 30.8474 67.2617 30.9349ZM66.5246 14.2142C66.7049 14.2983 66.886 14.3749 67.0655 14.4573C66.8805 14.3726 66.6957 14.2899 66.5112 14.2092L66.5246 14.2142ZM47.0478 69.0022C47.0579 68.9954 47.0688 68.9895 47.0797 68.9837C47.0579 68.9912 47.047 68.9971 47.0369 69.0038L47.0478 69.0022ZM47.4285 68.7843C47.4419 68.7776 47.4545 68.77 47.4671 68.7624C47.447 68.7717 47.4344 68.7793 47.421 68.786L47.4285 68.7843ZM50.1966 67.1837C50.21 67.1762 50.2234 67.1686 50.236 67.1602C50.2175 67.1703 50.2041 67.1778 50.1907 67.1854L50.1966 67.1837ZM65.0169 48.5404C65.0522 48.4344 65.0865 48.3284 65.1209 48.2224C65.0857 48.3284 65.0513 48.4344 65.0161 48.5404H65.0169ZM65.9108 45.4284C65.7364 46.141 65.5427 46.8487 65.3297 47.5513C65.5427 46.8492 65.7364 46.1416 65.9108 45.4284C66.0327 44.9321 66.1445 44.4339 66.2462 43.9338C66.1434 44.4345 66.031 44.933 65.9091 45.4292L65.9108 45.4284Z" fill="rgba(228, 126, 48, 1)"/>
<path d="M66.2446 43.9346C66.1423 44.4348 66.0305 44.933 65.9092 45.4292C66.0316 44.933 66.1434 44.4348 66.2446 43.9346Z" fill="rgba(228, 126, 48, 1)"/>
<path d="M67.0688 22.4324V27.5454C67.3204 27.6295 67.572 27.6951 67.7824 27.7489V22.4324H67.0688Z" fill="rgba(228, 126, 48, 1)"/>
<path d="M45.8398 28.6808C46.1976 28.6649 46.5537 28.6213 46.9048 28.5504C49.7374 28.008 54.0802 25.9801 58.1698 25.9801C59.1417 25.9854 60.1122 26.0536 61.0753 26.1845L61.1592 26.1954C62.2166 26.3376 63.2346 26.5361 64.1486 26.7472C64.4957 26.8271 64.8278 26.9087 65.1406 26.9902L65.2705 27.0239C65.4726 27.0769 65.6672 27.129 65.8525 27.1812C66.3246 27.3124 66.738 27.4335 67.0726 27.542V22.4324H45.8398V28.6808Z" fill="rgba(228, 126, 48, 1)"/>
</svg>
